<?xml version="1.0" standalone="no"?>
<!DOCTYPE svg PUBLIC "-//W3C//DTD SVG 20010904//EN"
 "http://www.w3.org/TR/2001/REC-SVG-20010904/DTD/svg10.dtd">
<svg version="1.0" xmlns="http://www.w3.org/2000/svg"
 width="433.000000pt" height="433.000000pt" viewBox="0 0 433.000000 433.000000"
 preserveAspectRatio="xMidYMid meet">
<metadata>
Created by potrace 1.11, written by Peter Selinger 2001-2013
</metadata>
<g transform="translate(0.000000,433.000000) scale(0.100000,-0.100000)"
fill="#000000" stroke="none">
<path d="M330 4053 c-36 -18 -65 -43 -85 -71 l-30 -44 -2 -1891 c-1 -1861 -1
-1893 18 -1934 45 -95 172 -139 272 -95 25 11 166 88 314 170 147 82 291 162
318 177 28 15 127 71 220 123 94 52 188 105 210 117 88 49 523 291 925 515
234 131 452 252 485 270 33 18 114 63 180 100 66 37 147 82 180 100 68 37 468
260 530 295 22 12 63 34 90 49 64 35 120 96 132 143 11 44 0 115 -21 149 -27
40 -74 68 -391 229 -170 87 -413 210 -540 275 -126 65 -392 200 -590 300 -198
100 -441 224 -540 275 -466 239 -972 497 -1304 666 -242 122 -278 130 -371 82z"/>
</g>
</svg>
